<svg width="636" height="521" viewBox="0 0 636 521" fill="none" xmlns="http://www.w3.org/2000/svg">
<path d="M361.954 24.0686C362.278 24.2307 368.598 24.7169 376.053 25.2031C397.445 26.1755 449.629 35.575 468.266 41.7334C482.204 46.2711 503.596 56.6432 517.857 65.8807C525.798 70.9046 532.605 75.6044 533.091 76.0906C533.577 76.5768 536.819 79.1698 540.384 81.9248C560.642 96.6725 593.702 132.326 605.209 151.125C624.17 182.727 635.028 219.029 635.514 252.9C635.676 262.3 635.352 271.375 634.704 273.158C634.218 274.941 633.245 283.53 632.759 292.119C631.787 308.974 626.601 330.042 619.794 344.465C615.743 352.893 597.592 372.826 593.864 372.826C590.785 372.826 588.678 369.423 587.544 362.616C586.896 359.375 585.923 356.62 585.275 356.62C584.627 356.62 582.52 360.347 580.575 364.885C577.496 371.692 576.524 372.826 573.283 372.178C571.176 371.692 565.341 371.044 560.318 370.557L550.918 369.585L543.787 383.684C532.767 405.401 514.616 427.765 500.679 436.679C494.358 440.73 488.686 444.134 487.876 444.134C487.065 444.134 485.607 445.268 484.472 446.565C482.852 448.509 484.148 452.399 491.765 467.957C500.355 485.459 509.106 512.362 506.999 514.469C506.513 514.955 503.92 515.927 501.165 516.413C496.789 517.224 496.141 516.899 494.358 511.876C483.5 483.191 471.508 456.612 468.428 454.83C467.618 454.181 464.377 454.83 461.46 456.126C454.005 459.367 428.237 466.822 420.458 468.119L413.975 469.253L413.489 493.725L413.003 518.196L398.255 519.33C371.191 521.113 373.946 523.706 374.432 497.128C374.594 478.329 374.27 474.277 372.488 474.763C371.191 475.087 362.116 475.574 352.392 475.898C342.506 476.222 329.055 477.356 322.248 478.491C313.335 479.787 305.88 479.787 294.698 478.653C286.271 477.68 278.978 477.194 278.492 477.518C278.005 477.842 277.033 485.946 276.385 495.507C274.764 522.572 276.709 520.465 254.506 519.817L235.707 519.492V507.338C235.707 500.693 236.355 489.835 237.166 483.191C238.462 471.684 238.462 471.36 235.059 472.494C233.114 472.981 227.766 472.008 222.094 469.901C216.746 467.957 211.236 466.822 210.101 467.308C207.184 468.443 198.757 488.539 193.895 505.717C190.654 517.71 190.006 518.682 186.116 518.682C179.796 518.682 177.689 515.117 178.985 507.014C180.606 497.452 185.792 482.542 191.464 471.198C195.678 462.609 195.84 461.798 193.247 460.988C173.799 454.668 153.704 443.323 140.253 431.007C128.422 420.148 120.157 404.428 118.86 389.681C117.402 373.799 122.588 350.138 129.881 339.928C133.608 334.58 133.284 334.418 117.402 333.283C111.081 332.797 103.302 332.311 100.061 331.987C93.0925 331.338 85.7997 325.342 85.7997 319.832C85.7997 314.97 84.017 315.132 79.3172 320.156C74.2933 325.504 71.8624 325.342 68.6211 318.86C66.3523 314.808 65.8661 309.784 66.0281 295.361C66.1902 285.475 67.0005 275.751 67.8108 274.13C68.7832 272.51 69.9176 267.972 70.4038 264.083C74.1312 233.939 99.4129 173.328 122.75 137.674C137.173 115.958 169.424 82.8972 184.658 74.1458C200.864 64.9083 240.893 45.4609 243.81 45.4609C245.269 45.4609 249.158 44.0023 252.4 42.3817C261.961 37.5198 289.998 30.227 316.738 25.6893C325.49 24.2307 360.981 22.9342 361.954 24.0686ZM234.897 209.144C210.101 212.385 179.958 220.164 175.096 224.702C173.313 226.322 172.827 231.346 173.151 246.742C173.799 281.747 167.155 311.891 155.324 327.611C143.98 342.683 139.118 354.837 137.335 371.206C135.229 391.139 137.984 400.377 150.3 413.666C160.672 424.848 167.479 429.062 188.709 437.813C206.86 445.106 221.608 449.158 248.672 453.857C273.954 458.233 325.49 459.854 351.582 457.099C361.791 455.964 372.812 454.992 375.891 454.83C382.535 454.343 408.465 450.13 432.613 445.592C452.222 441.865 473.614 432.141 494.682 417.231C508.296 407.508 515.913 398.594 523.367 383.198C529.364 370.882 529.364 369.909 523.692 368.775C521.261 368.126 510.727 365.533 500.355 362.778C478.476 356.944 468.915 352.244 469.563 347.545C469.725 345.924 470.697 338.631 471.508 331.5C472.48 324.37 474.587 310.919 476.369 301.519C480.259 281.909 482.366 239.611 479.935 233.453C478.314 229.077 478.314 229.077 442.336 220.65C417.217 214.654 387.721 210.44 352.392 207.523C329.703 205.74 252.886 206.713 234.897 209.144ZM271.685 229.563C273.63 234.587 270.875 236.856 264.23 235.722C259.206 234.911 256.451 235.398 252.237 238.153C248.834 240.259 243.972 241.556 239.597 241.556C235.545 241.556 230.683 242.69 228.738 244.149C226.308 245.77 223.552 246.256 220.149 245.608C215.449 244.473 215.287 244.311 217.88 241.556C223.228 235.722 242.838 229.077 257.261 228.105C267.958 227.457 270.875 227.781 271.685 229.563ZM341.858 231.994C347.692 232.805 358.712 234.101 366.329 234.911C382.86 236.694 392.745 240.746 393.394 246.094C394.69 255.007 389.99 255.817 364.384 251.118C358.226 249.983 352.23 249.821 350.609 250.469C348.827 251.28 343.154 251.928 337.806 252.09C325.49 252.252 314.307 258.248 314.307 264.569C314.307 266.351 313.173 267.486 311.066 267.486C308.311 267.486 307.825 266.351 307.825 260.841C307.825 249.335 322.572 229.239 330.027 230.374C330.676 230.536 336.024 231.184 341.858 231.994ZM338.617 270.727C339.913 271.537 345.099 271.862 349.961 271.213C357.254 270.565 361.629 271.213 371.677 274.617C378.646 276.886 385.453 278.83 386.587 278.83C389.018 278.83 389.504 281.747 387.559 284.827C386.749 286.123 384.318 286.285 379.132 285.313C367.788 283.044 359.685 283.368 356.93 286.285C354.337 288.878 345.261 288.068 343.316 284.989C342.668 284.016 339.913 282.882 336.996 282.234C332.944 281.423 331.162 279.965 330.027 276.723C329.217 274.13 328.893 271.862 329.055 271.7C331 269.917 336.51 269.431 338.617 270.727ZM267.309 270.565C267.309 274.617 265.04 277.21 261.313 277.21C258.396 277.21 256.775 278.506 255.155 282.72C253.858 285.799 251.427 288.554 249.969 288.878C247.538 289.364 231.169 282.234 228.576 279.478C227.118 278.182 238.948 269.269 242.19 269.107C243.972 269.107 247.538 270.241 250.293 271.7C254.668 273.968 255.317 273.968 256.937 271.7C258.882 268.944 267.309 268.134 267.309 270.565ZM334.403 325.99C342.506 333.283 344.613 340.414 338.617 340.414C335.213 340.414 333.593 338.955 328.893 331.5C327.11 328.745 324.517 325.018 323.059 322.911C320.466 319.508 320.628 319.346 323.707 319.346C325.49 319.346 330.351 322.425 334.403 325.99ZM241.055 332.635C245.755 337.335 242.19 343.817 232.79 347.707C226.794 350.138 226.794 350.138 228.738 346.896C229.873 345.114 231.331 343.655 232.142 343.655C232.79 343.655 233.276 342.683 232.952 341.548C232.304 337.983 234.897 330.69 237.004 330.69C238.138 330.69 239.921 331.5 241.055 332.635ZM325.49 341.872C327.11 343.007 327.272 343.979 325.814 346.734C322.572 352.569 316.576 355.162 301.018 357.43C292.753 358.565 284.002 360.185 281.571 360.672C278.329 361.482 275.574 360.672 270.226 356.944C266.337 354.351 262.447 352.569 261.313 352.893C255.965 354.837 248.672 344.952 253.858 342.845C257.099 341.71 267.795 343.655 269.092 345.6C269.74 346.572 273.63 345.6 278.492 343.493C285.784 340.414 288.377 340.09 298.587 341.224C313.173 342.845 317.711 342.845 320.79 341.548C322.086 340.9 324.193 341.062 325.49 341.872ZM334.079 375.419C335.862 379.147 335.375 380.767 331.324 388.384C326.624 397.136 323.221 399.242 321.438 394.705C320.142 391.301 318.845 391.625 313.335 396.325C310.742 398.594 307.177 400.377 305.232 400.377C303.449 400.377 300.208 402.159 298.101 404.266C292.753 410.101 281.247 413.666 275.736 411.397C273.306 410.425 270.226 409.452 268.93 409.452C267.633 409.29 265.04 407.021 263.258 404.104C261.475 401.187 258.72 398.918 257.099 398.756C253.696 398.756 251.103 392.598 252.724 388.222C254.668 383.036 261.799 378.823 269.74 378.336C273.63 378.174 277.357 378.66 277.843 379.471C278.33 380.281 282.381 380.605 286.757 380.119C293.563 379.471 295.022 379.795 296.48 382.55C297.939 385.143 299.722 385.791 305.88 385.791C310.094 385.629 315.28 385.791 317.549 386.115C320.79 386.439 322.086 385.467 325.165 378.823C329.379 370.233 331.324 369.423 334.079 375.419ZM317.062 404.104C317.224 406.049 318.035 407.832 319.007 408.156C321.438 408.966 317.711 418.042 314.145 419.986C312.363 420.797 310.256 421.121 309.445 420.635C308.473 420.148 307.825 421.121 307.825 422.903C307.825 424.848 306.852 426.307 305.556 426.307C301.342 426.307 301.342 423.714 305.394 419.824C307.663 417.717 309.445 414.152 309.445 411.883C309.445 407.345 310.418 405.563 314.307 402.484C316.414 400.863 316.9 401.187 317.062 404.104ZM435.53 477.843C437.312 479.625 439.581 486.432 441.364 494.535C446.55 519.655 446.712 517.062 439.257 517.062C432.937 517.062 432.613 516.899 430.83 510.093C429.858 506.365 428.885 497.128 428.723 489.673C428.561 475.087 430.02 472.332 435.53 477.843ZM229.387 478.977C230.845 482.542 223.877 514.144 221.284 516.737C219.825 518.358 217.394 518.682 214.639 518.034C210.425 516.899 210.263 516.575 211.074 508.472C212.208 496.966 216.584 483.515 220.473 479.625C224.201 475.898 228.09 475.574 229.387 478.977Z" fill="#525152"/>
<path d="M383.995 26.399C414.139 29.9644 454.979 37.7434 469.564 42.6052C498.087 52.1669 527.744 70.3179 556.105 95.2755C567.612 105.323 595.648 136.601 603.103 147.784C621.74 175.334 635.84 219.901 636.002 250.855C636.002 273.706 631.626 310.494 626.926 326.052C621.416 344.203 616.555 352.954 606.02 363.326C598.728 370.457 596.783 371.753 593.218 370.781C589.976 369.971 589.004 368.674 588.842 365.271C588.842 362.84 588.194 359.437 587.545 357.654C586.411 354.899 585.601 355.709 581.873 363.65C577.66 372.726 577.66 372.888 572.474 371.267C569.556 370.457 563.398 369.809 559.022 369.809C550.757 369.809 550.757 369.809 544.113 383.098C537.792 395.901 523.207 416.969 513.321 427.341C510.89 430.096 503.111 435.606 496.304 439.495C489.336 443.547 483.826 447.598 483.664 448.571C483.664 449.543 487.553 458.619 492.415 468.829C501.328 487.79 506.352 502.537 506.352 509.83C506.352 514.206 500.518 518.744 498.249 516.151C497.601 515.502 493.873 507.237 490.146 497.838C480.098 472.718 470.699 454.081 467.944 454.081C466.647 454.081 464.054 454.891 462.271 455.864C458.706 457.808 430.345 465.587 418.353 467.856C413.977 468.666 413.977 468.666 413.977 493.786V518.906H408.467C403.119 518.906 403.119 518.906 401.984 503.996C401.498 495.893 401.012 485.035 401.012 479.687C401.012 471.097 399.391 467.856 396.96 471.908C396.474 472.718 394.205 473.528 391.936 473.528C387.885 473.528 387.885 473.528 388.371 496.217L388.857 518.906H374.596L375.406 496.379L376.216 474.015L367.141 474.663C362.117 474.987 350.773 475.635 341.859 475.959C332.946 476.283 323.06 477.418 319.819 478.552C315.443 479.849 309.771 479.849 297.454 478.552C288.379 477.58 280.276 476.77 279.465 476.77C278.493 476.77 277.845 479.687 277.845 483.414C277.845 486.98 277.034 496.865 275.9 505.293C274.117 520.688 274.117 520.688 269.093 520.202L264.069 519.716L264.718 497.351L265.204 475.149H258.721C254.994 475.149 251.753 475.797 251.267 476.608C250.78 477.418 249.484 486.98 248.349 498C247.377 509.02 245.918 518.582 245.108 519.068C244.298 519.554 241.867 519.716 239.598 519.23C236.195 518.582 235.709 517.609 235.709 511.775C235.709 508.21 236.843 497.838 238.14 488.924C239.274 480.011 240.084 472.556 239.76 472.232C239.436 471.908 235.709 471.422 231.657 471.097C227.443 470.773 223.23 469.801 222.257 468.829C221.285 467.856 217.882 467.046 214.641 467.046C208.806 467.046 208.482 467.37 204.431 477.094C198.596 490.707 191.952 510.641 191.952 514.206C191.952 518.095 189.359 519.392 184.497 518.257C181.094 517.285 180.607 516.313 180.607 509.83C180.607 501.403 185.145 486.98 192.114 473.042C194.869 467.694 196.49 462.832 195.679 462.184C195.031 461.536 189.359 459.105 183.362 456.674C168.291 450.84 151.598 440.306 141.064 430.096C131.665 421.02 122.265 405.786 122.265 399.628C122.265 397.521 121.455 394.118 120.32 391.849C116.755 383.908 124.372 348.254 131.179 340.637C132.475 339.179 133.609 337.234 133.609 336.262C133.609 334.641 122.265 332.858 103.952 331.562C91.6353 330.752 82.722 322.487 88.2321 316.976C89.3665 315.842 89.2044 315.194 87.4218 315.194C85.9632 315.194 82.884 317.301 80.4531 319.893C74.7809 325.89 72.35 325.566 69.4329 318.759C66.5157 311.466 66.3537 284.726 69.4329 272.733C70.5673 267.71 72.9982 258.148 74.4568 251.503C82.2358 218.281 103.304 169.986 123.886 138.222C136.689 118.612 170.398 83.769 184.497 75.6659C201.189 66.1042 231.171 51.1945 239.76 48.1153C244.136 46.6568 250.78 44.0638 254.346 42.4432C263.907 38.2296 269.904 36.6089 294.051 30.9368C313.823 26.399 318.684 25.7508 345.1 25.5887C361.145 25.4267 378.647 25.7508 383.995 26.399ZM456.923 63.5112C457.41 64.3216 458.544 65.1319 459.516 65.1319C460.327 65.1319 460.975 64.3216 460.975 63.5112C460.975 62.5389 459.84 61.8906 458.382 61.8906C457.085 61.8906 456.437 62.5389 456.923 63.5112ZM232.467 209.205C209.455 213.095 202 214.715 190.655 218.443C171.856 224.439 173.315 222.008 173.153 248.586C172.991 284.24 167.318 312.115 158.081 324.431C145.116 341.61 140.74 351.172 137.661 368.512C134.096 389.094 138.471 402.221 153.867 417.455C171.37 434.633 198.272 444.681 255.966 455.702C260.342 456.512 277.196 457.97 293.241 458.943C317.226 460.239 326.787 460.077 347.531 457.97C361.307 456.674 374.272 455.539 376.378 455.539C378.485 455.702 383.185 455.053 386.913 454.081C390.64 453.271 401.66 451.488 411.546 450.029C442.338 445.492 455.303 441.764 471.347 432.689C492.739 420.696 503.435 413.079 510.728 404.814C518.345 396.225 529.527 375.805 528.717 371.915C528.393 369.971 523.855 368.188 512.835 365.595C494.036 361.219 481.071 357.33 475.074 354.089C470.699 351.82 470.537 351.496 471.509 342.582C472.157 337.558 474.426 322 476.857 308.225C480.098 288.616 481.071 277.271 481.071 256.527L481.233 229.949L470.699 227.194C433.424 217.308 410.249 212.933 370.22 208.557C346.559 205.964 249.646 206.45 232.467 209.205ZM271.362 230.111C271.362 232.704 268.445 234.001 261.314 234.487C257.911 234.811 253.211 236.269 251.104 237.566C248.836 239.025 244.136 240.159 240.246 239.997C236.357 239.835 231.171 240.645 228.74 241.618C226.147 242.59 223.392 243.4 222.582 243.4C219.826 243.4 229.712 235.783 234.088 234.487C236.357 233.839 238.95 232.542 240.084 231.732C243.001 229.463 271.362 228.004 271.362 230.111ZM342.67 233.028C344.938 233.352 353.204 234.487 361.307 235.459C380.592 237.728 387.885 239.997 390.802 244.535C394.854 250.693 391.45 252.962 381.24 251.179C364.548 248.424 352.717 247.938 349.152 249.883C346.235 251.503 344.938 251.179 342.021 248.424C339.59 246.155 337.321 245.345 335.539 245.993C333.594 246.804 331.487 245.669 328.732 242.59C324.357 237.404 324.194 236.594 326.787 234.001C328.732 232.056 333.918 231.894 342.67 233.028ZM318.36 245.183C318.36 249.234 314.957 257.986 313.336 257.986C311.392 257.986 311.392 257.662 315.119 249.721C316.902 245.831 318.36 243.724 318.36 245.183ZM265.69 270.951C267.311 273.706 263.745 276.947 261.639 274.84C260.342 273.544 260.666 272.409 262.287 271.113C263.907 269.654 264.88 269.654 265.69 270.951ZM361.307 272.895C378.971 275.651 395.016 283.754 381.078 282.781C369.086 281.809 361.793 282.295 357.579 284.402C352.717 286.833 348.504 286.347 343.48 282.943C341.697 281.647 338.618 280.674 336.673 280.674C334.566 280.674 332.784 279.702 332.622 278.244C332.622 276.947 332.46 275.002 332.298 273.868C332.136 271.599 350.124 270.951 361.307 272.895ZM249.646 272.247C252.077 273.868 255.156 279.864 255.156 282.943C255.156 284.24 253.697 286.185 251.753 287.157C249.16 288.616 247.053 288.129 240.895 284.564C236.681 282.133 232.954 280.026 232.629 279.702C232.305 279.378 233.278 277.271 234.736 275.002C236.681 272.085 238.788 270.951 242.677 270.951C245.432 270.951 248.674 271.599 249.646 272.247ZM335.215 328.159C339.752 332.048 341.211 334.479 340.563 336.262C338.942 340.637 336.835 339.503 331.487 331.562C324.032 320.704 325.167 319.731 335.215 328.159ZM240.246 336.748C239.598 340.151 236.681 340.475 236.033 336.91C235.709 335.289 236.519 334.155 238.14 334.155C239.76 334.155 240.57 335.127 240.246 336.748ZM326.463 344.365C326.463 351.009 315.281 355.871 297.292 357.492C292.43 357.978 286.11 358.788 283.193 359.437C279.303 360.247 276.872 359.599 273.145 356.844C267.149 352.63 267.635 351.172 275.9 349.875C279.303 349.227 283.679 347.282 285.624 345.499C288.703 342.582 290.972 342.258 307.826 342.582C318.036 342.906 326.463 343.717 326.463 344.365ZM263.907 346.796C265.366 349.227 260.828 352.144 257.749 351.009C256.29 350.361 255.318 349.065 255.642 348.092C256.453 345.823 262.611 344.851 263.907 346.796ZM332.946 377.101C335.539 380.343 333.756 387.149 329.543 389.418C324.843 391.849 324.032 390.228 326.301 382.774C328.57 375.319 330.191 373.86 332.946 377.101ZM276.872 381.153C279.465 381.963 284.489 382.449 287.731 382.125C292.268 381.639 294.537 382.287 296.644 384.556C298.751 386.987 301.344 387.635 307.34 387.473C311.554 387.311 315.605 387.635 316.091 388.122C317.226 389.256 307.988 398.98 305.881 398.98C305.233 398.98 301.02 401.411 296.482 404.49C286.434 411.297 279.141 413.079 275.738 409.676C274.279 408.217 272.01 407.083 270.39 407.083C267.473 407.083 255.804 395.414 254.346 390.877C252.239 384.394 266.824 378.074 276.872 381.153ZM437.314 480.335C438.61 482.442 441.041 490.869 442.5 499.296C444.769 512.099 444.931 514.53 442.986 515.827C434.883 520.85 431.48 514.206 429.211 489.248C428.238 477.256 428.238 476.77 431.48 476.77C433.424 476.77 436.017 478.39 437.314 480.335ZM229.064 478.228C230.685 479.363 230.523 482.604 227.768 494.758C222.582 518.095 222.906 517.285 217.72 517.285C213.182 517.285 213.02 516.961 213.02 509.506C213.02 492.003 222.257 474.015 229.064 478.228Z" fill="#222121"/>
<path d="M377.498 26.8841C385.925 27.3703 395.001 28.3426 397.756 28.8288C400.349 29.477 409.91 31.0977 418.824 32.5563C427.737 33.8528 442.971 36.9319 452.857 39.2008C472.466 43.7386 506.661 57.5138 505.851 60.7551C505.689 61.7274 506.175 62.2136 506.986 61.7274C508.444 60.7551 525.947 71.7753 533.402 78.4198C535.833 80.5266 539.074 83.1196 540.857 84.092C547.177 87.8194 568.083 106.132 573.593 112.939C576.672 116.829 580.724 121.366 582.506 123.311C608.274 149.889 624.643 181.815 633.718 223.627C635.987 234.648 636.473 284.077 634.204 285.859C633.394 286.345 632.584 289.425 632.422 292.504C631.773 309.196 630.153 318.758 626.101 329.778C619.619 347.767 616.54 353.115 606.816 363.001C594.985 374.831 591.906 374.669 589.961 362.353C588.503 354.25 586.072 354.574 582.344 363.487L578.941 371.266L566.138 370.132C554.146 369.159 553.173 369.321 549.77 372.887C547.663 374.993 546.043 377.262 546.043 378.235C546.043 385.203 520.923 422.316 510.713 430.257C504.555 435.118 489.159 444.68 485.755 445.815C481.704 446.949 482.028 448.894 487.7 458.78C495.803 473.203 503.906 494.595 504.555 503.185C504.879 507.722 504.555 511.288 503.744 511.288C502.934 511.288 502.772 512.422 503.42 513.881C504.068 515.825 503.582 516.312 501.475 515.987C499.531 515.501 496.127 509.505 490.941 496.702C484.621 480.982 472.466 455.214 470.522 453.107C470.197 452.783 466.632 454.08 462.581 456.025C458.691 457.807 453.991 459.428 452.209 459.428C450.588 459.428 443.781 461.21 437.137 463.479C430.654 465.748 423.524 467.531 421.255 467.531C413.314 467.693 412.99 468.503 413.476 494.433C413.962 518.58 413.962 518.58 409.748 518.743C405.535 518.905 405.373 518.743 404.4 505.778C403.914 498.485 403.266 487.627 403.104 481.63L402.78 470.61L396.135 471.745C392.57 472.231 389.004 473.689 388.356 474.662C387.546 475.634 387.384 486.168 387.87 497.999L388.518 519.553L383.494 519.067C377.012 518.418 376.039 514.691 377.336 494.757C378.794 472.231 379.605 473.527 364.047 474.5C356.754 474.986 345.248 475.796 338.603 476.12C331.959 476.606 322.073 477.417 316.725 478.065C311.377 478.551 301.329 478.389 294.522 477.741C287.554 476.931 281.071 476.768 279.937 477.417C278.316 478.389 275.723 500.43 275.399 514.853C275.399 518.905 274.751 519.391 270.375 519.391H265.351L265.837 497.026L266.485 474.824L259.841 474.338C255.789 474.013 252.548 474.662 251.414 476.12C250.441 477.255 249.145 484.385 248.659 492.002C246.876 518.256 246.552 519.391 241.852 519.391C237.638 519.391 237.638 519.391 238.611 503.671C239.259 494.919 240.231 484.061 240.718 479.361C241.852 471.096 241.852 471.096 236.342 471.096C233.263 471.096 226.942 469.8 222.405 468.341C217.705 466.721 212.681 465.91 211.384 466.559C207.819 467.855 197.285 492.813 192.747 510.801C191.289 516.636 190.316 517.77 186.913 517.77C184.644 517.77 182.537 516.636 181.889 515.015C180.106 510.315 184.644 492.975 191.937 477.579L199.068 462.669L192.261 459.752C188.534 457.969 182.861 455.7 179.782 454.566C168.6 450.352 151.259 439.332 142.184 430.581C123.547 412.916 117.55 389.417 124.519 362.029C126.464 354.574 130.029 345.66 132.298 342.095C137.16 334.64 136.188 333.83 124.195 333.181C119.657 333.019 112.689 332.209 108.799 331.237C104.91 330.426 101.182 330.102 100.21 330.588C97.9409 332.047 89.3516 326.375 88.5413 322.972C88.0551 321.351 88.7033 319.082 89.8378 317.786C91.1343 316.651 91.6204 315.193 91.1343 314.706C89.8378 313.41 84.1656 316.327 78.9796 321.189C74.766 325.24 74.766 325.24 71.6868 320.703C68.2835 315.355 67.1491 291.045 69.7421 280.187C70.5524 276.784 72.3351 268.357 73.6316 261.712C75.9004 249.233 76.8728 246.154 87.7309 214.714C95.9961 191.215 112.04 158.641 125.978 137.735C140.401 115.856 172.814 83.2817 188.696 74.5303C209.278 63.186 219.325 58.1621 232.452 52.814C239.583 49.7348 249.469 45.6833 254.331 43.5765C263.568 39.849 281.881 34.9872 302.949 30.9356C309.594 29.6391 319.156 27.6944 324.18 26.722C333.255 24.9393 348.165 25.1014 377.498 26.8841ZM299.708 46.3315C268.592 52.1658 215.76 74.5303 192.747 91.7089C175.407 104.512 149.639 132.224 136.674 151.996C115.119 184.733 95.672 231.569 83.3553 280.349C78.4934 299.797 78.4934 298.986 82.545 298.986C84.8139 298.986 87.0827 296.393 89.9999 290.397C95.51 279.377 98.427 276.298 103.127 276.298C107.665 276.298 107.665 276.946 104.423 296.555C103.127 304.496 101.992 311.627 101.992 312.275C101.992 314.22 112.202 316.651 125.167 317.786C135.377 318.596 138.132 319.406 140.239 322.323C142.67 325.727 142.67 325.727 145.749 321.675C153.528 311.789 159.687 283.753 161.145 253.123C162.117 227.517 162.766 228.327 147.694 235.782C142.184 238.375 136.674 240.644 135.377 240.644C130.191 240.644 130.191 218.604 135.539 200.939C147.532 160.585 154.825 145.027 169.734 129.145C172.814 125.742 175.569 124.283 177.189 124.932C180.917 126.39 180.43 127.849 174.272 136.438C167.303 146.324 151.259 186.839 148.342 202.073C144.777 220.224 144.453 222.817 145.749 223.627C146.397 224.114 153.204 221.197 160.497 217.307C194.692 199.318 235.532 192.187 305.38 191.863C345.734 191.701 388.194 195.267 422.875 201.749C441.675 205.314 474.087 213.58 477.49 215.686C482.028 218.604 482.028 218.604 478.625 199.48C477.328 191.701 476.518 184.895 476.842 184.57C477.166 184.246 479.111 183.76 481.218 183.598C486.242 182.95 488.673 187.812 492.886 207.097C498.882 235.134 498.234 307.251 491.752 333.019C490.455 337.881 489.969 342.419 490.617 342.905C491.266 343.553 500.179 345.822 510.389 348.091C524.65 351.17 535.022 352.305 554.146 352.791L579.103 353.277L583.317 344.85C588.665 334.154 592.554 329.778 596.768 329.778C599.685 329.778 599.847 330.751 599.199 339.502C598.551 347.605 598.875 349.226 600.82 348.901C603.737 348.253 604.709 346.633 609.895 332.857C615.243 318.758 617.026 310.331 618.808 287.156C621.563 254.905 617.512 224.762 606.816 196.239C600.009 178.25 590.285 158.965 583.479 149.889C566.949 128.011 527.892 92.6813 506.824 80.6887C495.803 74.2062 471.656 64.8066 447.995 57.5138C442.647 55.8932 436.002 53.4623 433.247 52.0037C418.986 44.5489 329.366 40.8214 299.708 46.3315ZM238.125 208.232C207.333 212.769 193.071 216.173 179.782 222.493L174.11 225.248L173.138 252.799C171.841 290.559 166.817 314.22 157.58 326.375C142.994 345.174 137.322 359.922 136.998 379.207C136.836 390.389 137.484 393.469 141.374 401.41C156.445 432.201 206.685 452.621 284.312 459.59C322.073 462.993 386.735 457.483 438.757 446.301C462.743 441.277 495.803 422.64 511.523 405.299C520.113 396.062 532.915 372.887 530.809 370.78C530.16 370.132 520.437 367.377 509.092 364.459C482.514 357.977 472.142 353.115 472.466 347.605C472.953 341.122 477.652 309.034 480.245 295.583C483.487 279.053 485.269 239.51 483.162 233.837C481.218 229.138 479.273 228.327 443.133 219.9C420.282 214.39 384.305 209.042 354.809 206.773C331.634 204.828 254.493 205.801 238.125 208.232ZM266.972 231.893C266.485 232.379 263.73 233.027 261.137 233.351C258.382 233.675 253.845 235.134 251.09 236.592C247.686 238.375 244.283 238.861 241.042 238.213L236.18 237.079L240.718 233.999C244.121 231.731 248.334 230.92 256.6 230.92C262.758 230.92 267.458 231.406 266.972 231.893ZM353.999 235.782C356.592 236.43 361.778 237.079 365.505 237.241C369.071 237.241 375.391 238.537 379.443 239.996C385.439 241.94 386.736 243.075 386.087 245.506C385.115 249.233 381.387 250.206 375.391 248.261C372.798 247.451 365.181 247.126 358.537 247.451C347.841 248.261 345.896 247.937 343.141 245.182C341.358 243.399 338.927 242.427 337.469 242.913C334.227 244.209 330.5 241.13 330.5 237.241C330.5 234.486 331.634 234.162 339.738 234.324C344.923 234.486 351.244 235.134 353.999 235.782ZM248.821 272.732C251.252 274.191 254.331 280.349 254.331 283.266C254.331 287.318 249.631 287.804 242.824 284.401C236.342 280.997 234.721 277.108 238.449 273.381C240.555 271.274 246.066 270.788 248.821 272.732ZM368.098 275.001C370.691 276.136 372.636 277.432 372.636 278.242C372.636 278.891 370.691 279.863 368.098 280.511C365.667 280.997 361.454 282.294 358.861 283.266C353.189 285.535 349.623 285.049 347.841 281.808C347.192 280.511 344.437 279.539 342.006 279.539C339.251 279.539 336.982 278.404 336.334 276.946C334.876 273.218 335.038 273.218 338.927 274.029C343.303 275.163 343.465 275.163 354.809 274.029C359.833 273.543 365.667 274.029 368.098 275.001ZM337.793 331.885C338.603 333.019 339.575 334.964 339.9 336.261C340.386 337.881 339.575 337.719 337.145 335.612C333.741 332.533 332.607 329.778 334.876 329.778C335.686 329.94 336.82 330.751 337.793 331.885ZM325.638 346.957C325.638 350.684 313.97 355.222 301.329 356.518C294.684 357.167 287.391 358.463 285.285 359.111C282.854 360.084 280.747 360.084 279.288 358.787C277.992 357.815 277.019 357.491 277.019 358.301C277.019 359.111 276.371 358.625 275.561 357.329C273.454 354.087 274.913 352.467 279.612 352.467C281.881 352.467 285.447 350.684 287.554 348.577C291.281 344.85 292.577 344.688 308.622 344.688C321.749 344.85 325.638 345.336 325.638 346.957ZM332.607 380.342C333.579 383.421 331.959 388.283 330.338 387.148C328.393 386.014 328.393 380.504 330.338 379.369C331.148 378.721 332.121 379.369 332.607 380.342ZM276.209 383.259C277.992 384.069 282.53 384.717 286.419 384.717C290.146 384.879 295.008 386.014 297.115 387.31C299.222 388.769 303.598 389.903 306.839 390.065C310.08 390.227 312.673 390.713 312.673 391.2C312.673 391.686 309.918 393.955 306.839 396.224C303.598 398.492 298.574 402.382 295.332 404.975C289.174 410.323 279.45 411.782 275.723 408.216C274.589 406.92 272.806 406.434 271.833 406.92C269.889 408.054 255.951 393.469 255.951 390.227C255.951 385.365 270.051 380.342 276.209 383.259ZM437.947 481.63C439.244 484.223 441.026 490.868 442.161 496.702C443.133 502.536 444.43 509.181 444.916 511.612C445.726 515.825 445.402 516.15 440.864 516.15C434.22 516.15 432.599 511.936 431.465 492.164C430.654 479.199 430.816 477.255 433.085 477.255C434.544 477.255 436.813 479.199 437.947 481.63ZM230.346 479.686C230.67 480.172 230.021 485.034 228.887 490.544C227.591 496.216 225.808 503.995 224.998 508.046C223.215 516.636 221.756 518.418 217.219 516.96C214.626 516.15 213.815 514.529 213.815 510.639C213.815 505.616 219.001 487.627 222.08 481.63C223.539 479.037 228.401 477.903 230.346 479.686Z" fill="#060505"/>
<path d="M4.16732 44.4641L0.991597 39.4954C7.23689 36.7389 13.2816 33.5028 19.1257 29.7874L21.9436 34.5177C21.3906 34.841 20.5611 35.326 19.4552 35.9726C18.5065 36.3782 17.7557 36.7426 17.2027 37.0659C17.6446 38.2249 18.0892 39.9044 18.5365 42.1045C19.2224 44.4635 19.6873 46.2431 19.9313 47.4431C21.2758 46.9554 23.2722 46.1238 25.9205 44.9483C28.6094 43.9728 30.6261 43.2412 31.9706 42.7534C27.9342 36.0874 23.7202 29.5625 19.3287 23.1788L25.4927 20.0222C26.6909 21.8579 28.2699 24.5525 30.2299 28.1061C33.5859 33.4542 36.0636 37.5256 37.6629 40.3202C39.5604 39.5091 42.229 38.4336 45.6688 37.0937C49.1086 35.7538 51.6986 34.7988 53.4388 34.2289L55.4273 39.4442C53.7277 40.2141 51.0388 41.1896 47.3604 42.3707C44.3164 43.6284 42.0232 44.5217 40.4808 45.0505C42.3188 48.004 44.2557 50.937 46.2915 53.8494C46.7631 53.1261 47.3716 52.0616 48.117 50.656C49.0603 49.2093 49.6688 48.1449 49.9425 47.4626L55.5456 50.6763C55.074 51.3997 54.4451 52.3641 53.6591 53.5697C53.0302 54.5342 51.6939 56.5836 49.6502 59.7181C50.2086 60.436 50.9676 61.6333 51.9273 63.31C54.0038 66.4225 56.9382 70.7117 60.7306 76.1776L55.0465 80.1725C54.0869 78.4958 52.6677 76.0806 50.7891 72.9271C48.672 69.6146 47.1336 67.12 46.174 65.4432C45.5451 66.4077 44.5436 68.075 43.1693 70.445C41.7544 72.615 40.654 74.3028 39.8679 75.5084L34.2649 72.2947C37.176 68.3547 39.9475 64.2352 42.5794 59.9362C41.6198 58.2594 40.1803 55.7443 38.2611 52.3907C36.743 49.9961 35.6641 48.2399 35.0243 47.122C33.482 47.6509 31.1888 48.5442 28.1447 49.8019C25.06 50.8596 22.7668 51.7529 21.2652 52.4817C21.6664 53.4407 22.0703 54.9202 22.477 56.9203C23.0815 58.8793 23.4855 60.3588 23.6888 61.3589C24.5562 60.5533 25.6797 59.4861 27.0594 58.1572C28.637 56.7872 29.7808 55.82 30.491 55.2555L34.5572 60.0392C31.7571 62.497 28.7592 64.9959 25.5634 67.5359C27.6156 73.5718 29.5282 79.4282 31.3012 85.1052L25.19 87C23.9755 82.0409 22.601 76.8022 21.0666 71.2842L11.3044 79.5658L7.00237 75.1438C11.1062 71.9983 15.1897 68.7527 19.2529 65.4072C18.7704 64.0482 18.1658 62.0892 17.4393 59.5302C16.5962 57.4123 16.0526 55.7533 15.8086 54.5533C11.2222 56.3398 6.65618 58.2264 2.11046 60.213L0 54.3977C0.395755 54.3154 0.870116 54.1127 1.42308 53.7893C5.2993 52.5672 9.53061 51.0629 14.117 49.2763C13.3091 46.3173 12.4023 43.3788 11.3965 40.4608C8.74826 41.6363 6.33852 42.9708 4.16732 44.4641ZM49.7223 28.1218L47.3723 33.3003C46.6974 33.0236 45.586 32.6291 44.0382 32.1168C40.2269 30.6154 37.3088 29.4497 35.2839 28.6196L37.3981 23.8028C41.4479 25.4631 45.556 26.9027 49.7223 28.1218Z" fill="black"/>
<path d="M78.2695 20.941L75.8622 15.1873C84.5634 12.3375 97.3562 7.80393 114.241 1.58655C116.377 0.934387 117.919 0.405536 118.868 0L121.153 5.15364C119.454 5.9236 117.614 6.51411 115.636 6.92516L120.165 9.42378C118.197 11.9171 116.468 14.5694 114.977 17.3806C115.571 17.2573 116.342 16.9928 117.291 16.5873C118.28 16.3818 118.973 16.2379 119.369 16.1557C126.69 14.6348 130.737 15.7745 131.51 19.5746C131.876 21.3747 131.374 23.9804 130.006 27.3916L130.835 26.9066L132.649 32.7836C121.614 36.3266 110.381 39.9108 98.95 43.536C98.8741 44.1772 98.5624 45.18 98.0149 46.5445C97.7059 48.0679 97.4146 49.1707 97.1408 49.8529C107.455 44.792 115.085 41.7477 120.032 40.7201C126.917 39.0814 130.749 40.6827 131.527 45.5241C132.259 49.1242 129.982 53.141 124.696 57.5743C128.624 58.6345 132.392 59.4152 136 59.9165L134.008 65.3333C128.969 63.8786 123.99 62.7239 119.073 61.8693C114.254 64.5381 108.209 67.7741 100.939 71.5773L97.5277 66.9703C101.52 65.3071 106.203 62.9794 111.575 59.9872C110.703 59.7516 109.393 59.3982 107.648 58.927C105.943 58.6558 104.654 58.4024 103.781 58.1668L105.712 52.45C109.878 53.6691 113.925 54.8088 117.853 55.869C123.022 51.8768 125.424 48.9806 125.058 47.1806C124.773 45.7805 123.543 45.3065 121.366 45.7587C114.719 47.5563 107.249 50.88 98.9545 55.7299L96.3806 52.1996C94.6379 59.8577 92.7149 67.1362 90.6116 74.0353L84.4841 72.8067C87.2514 64.102 89.8588 55.1178 92.3062 45.8542C91.1189 46.1009 89.2798 46.6914 86.7887 47.6257C84.2569 48.3601 82.3188 48.9712 80.9744 49.4589L78.9249 43.9436C83.7499 42.316 88.8133 40.8472 94.1154 39.5374C94.6926 36.2906 95.4881 33.1027 96.5018 29.9737C92.3111 31.6781 88.6355 33.3797 85.4749 35.0785C86.3533 36.3553 87.2112 37.532 88.0488 38.6088L82.7753 41.5803C80.2976 37.509 77.8227 33.9582 75.3504 30.9279L80.563 27.6563L82.4212 30.7099C84.4352 29.4577 86.6674 28.2644 89.1178 27.13C87.8735 24.0531 86.2538 21.1585 84.2586 18.4461C83.665 18.5694 82.7163 18.9749 81.4125 19.6627C80.068 20.1504 79.0203 20.5765 78.2695 20.941ZM120.109 21.3176C117.338 21.8931 111.169 24.0085 101.6 27.6638L103.861 28.1323C102.609 31.1023 101.595 34.2313 100.82 37.5192C109.917 34.5872 118.874 31.4758 127.692 28.1849L122.874 27.3096C124.37 25.5396 125.075 23.934 124.988 22.4928C124.703 21.0928 123.077 20.701 120.109 21.3176ZM107.968 17.8987C109.266 16.1697 111.114 13.5969 113.513 10.1802C114.101 9.01575 114.631 8.07184 115.103 7.34849C110.395 8.53503 105.669 10.1421 100.925 12.1698C101.245 12.7287 101.646 13.6877 102.129 15.0466C103.053 17.5646 103.855 19.4825 104.536 20.8003C106.235 20.0303 107.976 19.4604 109.757 19.0904L107.968 17.8987ZM95.7043 13.8797C94.9535 14.2441 93.8069 14.6908 92.2645 15.2196C90.9607 15.9074 90.012 16.3129 89.4183 16.4362C89.6975 16.7951 90.0174 17.354 90.378 18.113C91.1397 19.8309 92.4396 22.1666 94.2775 25.1201C95.9364 24.1501 97.636 23.3802 99.3762 22.8102C98.5277 19.6511 97.3037 16.6743 95.7043 13.8797Z" fill="black"/>
</svg>
