<svg width="620" height="411" viewBox="0 0 620 411" fill="none" xmlns="http://www.w3.org/2000/svg">
<path d="M256.793 0.532461C236.817 2.01216 217.581 4.2317 207.469 6.14298C199.947 7.62268 185.15 12.4317 177.197 16.0077C174.176 17.364 170.168 19.0287 168.318 19.6453C166.407 20.3235 163.879 21.6799 162.584 22.728C161.351 23.7144 159.933 24.5776 159.378 24.5776C158.885 24.5776 155.926 22.4197 152.843 19.7685C146.369 14.2197 142.177 11.3836 137.984 9.78059C136.381 9.16405 132.805 7.68433 130.092 6.45125C124.42 3.92343 118.933 2.99862 109.438 2.87531C104.197 2.87531 102.224 3.12194 98.9564 4.23171C96.7368 4.97156 93.2841 6.08132 91.2495 6.6362C86.0088 8.11591 72.9996 17.1791 64.6762 25.1941C61.1618 28.5851 59.7438 30.558 57.6475 34.8738C53.7632 42.8272 53.27 44.9235 52.9 54.1716C52.4068 66.8724 53.5166 81.3611 55.3662 86.91C59.6204 99.5491 66.6491 108.982 79.535 119.402C84.2208 123.224 92.4826 128.157 94.0856 128.157C94.6405 128.157 95.6887 128.65 96.4285 129.205C97.7849 130.315 97.7849 130.315 95.9353 135.863C95.0104 138.884 93.0375 144.618 91.6811 148.503C90.3247 152.387 88.5983 158.059 87.8585 161.142C87.1802 164.163 85.0223 172.363 83.2343 179.33C78.8568 195.791 77.5621 202.265 76.4523 213.856C75.8974 219.097 75.3425 223.967 75.1575 224.645C74.9109 225.324 71.9515 228.653 68.4371 232.044C64.9844 235.435 61.4701 239.196 60.6686 240.367C59.8671 241.539 58.3257 243.388 57.2775 244.436C56.1678 245.423 54.3181 247.827 53.1467 249.677C51.9752 251.527 49.6323 254.424 48.0293 256.151C45.3781 258.864 40.4457 265.954 36.3765 272.736C35.0817 274.955 33.3554 277.36 28.238 284.45C24.6004 289.444 21.3327 295.733 15.1055 310.037C7.46026 327.423 4.87075 337.349 2.15793 359.36C1.84965 361.888 1.2331 365.525 0.863171 367.375C0.36993 369.533 0.0616551 377.856 0.0616551 390.495L0 410.225H215.484C430.969 410.225 430.969 410.225 432.819 408.93C433.867 408.252 436.333 406.587 438.367 405.231C440.402 403.936 444.595 400.483 447.616 397.585C450.698 394.688 455.261 390.68 457.789 388.646C460.317 386.611 463.091 384.083 463.954 383.097C464.756 382.049 466.914 379.706 468.64 377.856C470.366 376.007 473.141 372.369 474.806 369.841C476.47 367.313 478.936 363.799 480.416 362.011C481.834 360.223 483.746 357.449 484.67 355.846C487.568 350.728 493.117 341.912 495.707 338.336C501.626 330.136 502.674 328.718 506.188 324.279C510.257 319.1 515.991 312.256 520.862 306.831C522.588 304.919 524.746 302.206 525.671 300.788C526.596 299.432 528.939 296.411 530.973 294.13C538.619 285.375 542.318 280.381 544.784 275.695C548.607 268.482 557.547 255.349 561.061 251.773C562.787 250.109 565.932 247.766 568.09 246.594C572.591 244.19 589.916 238.209 595.896 236.976C598.116 236.545 601.445 235.435 603.295 234.572C605.144 233.709 607.302 232.969 608.042 232.969C610.385 232.969 614.331 231.057 615.564 229.331C617.475 226.68 617.784 223.906 616.489 221.439C615.626 219.836 615.502 219.158 616.057 218.973C616.489 218.85 617.475 218.172 618.339 217.494C621.483 215.027 620.003 210.342 615.256 207.506C613.221 206.272 612.543 205.471 612.543 204.3C612.543 203.375 611.68 201.772 610.447 200.415C608.289 198.134 608.289 198.134 600.397 198.196C591.765 198.196 594.046 197.641 564.76 207.814C559.458 209.663 557.67 209.91 557.67 208.924C557.67 207.629 553.046 202.203 551.381 201.463C548.668 200.354 543.428 201.155 539.358 203.313C535.351 205.471 533.255 207.074 522.835 216.014C514.203 223.412 511.86 225.077 506.065 227.79C502.304 229.578 498.481 230.503 498.481 229.639C498.481 229.516 501.564 223.042 505.325 215.274C512.169 201.217 516.916 189.811 522.65 173.472C524.315 168.725 526.658 163.115 527.829 161.018C531.837 153.805 530.665 148.441 525.054 148.379C522.342 148.379 521.417 147.701 522.403 146.468C523.082 145.666 525.609 136.542 525.609 134.877C525.609 133.089 523.205 130.623 521.355 130.623C518.827 130.623 514.327 133.829 511.552 137.528C508.901 141.104 507.298 142.707 506.743 142.152C506.558 141.967 507.113 138.391 507.976 134.199C508.839 130.068 509.702 124.519 509.949 121.991C510.319 117.429 510.257 117.367 508.469 115.641C506.928 114.161 506.25 113.914 503.66 114.099C499.591 114.346 499.344 115.024 496.508 131.856C496.138 134.075 494.597 139.871 492.994 144.742C490.343 153.188 488.493 156.641 487.26 155.408C486.952 155.1 486.458 151.4 486.088 147.208C485.102 134.507 483.561 130.253 477.95 124.211C474.682 120.758 474.436 120.573 472.216 120.943C467.407 121.745 466.544 125.074 468.825 134.445C471.476 145.666 472.216 160.463 470.305 165.827C469.688 167.492 469.072 168.848 468.887 168.848C468.702 168.848 467.839 167.554 466.914 166.074C464.756 162.436 461.858 160.648 459.022 161.08C457.85 161.265 456.494 161.881 456.124 162.498C454.953 164.039 455.138 167.8 456.556 171.808C458.467 177.11 459.577 183.892 459.762 190.736C459.885 196.408 459.7 197.394 457.665 203.128C453.103 215.891 448.602 224.029 440.772 233.647C438.306 236.73 436.21 239.442 436.21 239.627C436.148 240.429 430.167 246.533 429.427 246.533C428.626 246.533 428.934 243.82 430.414 237.901C432.449 229.763 434.052 209.54 433.188 203.683C432.819 201.279 432.387 197.826 432.264 195.976C431.277 182.474 430.537 176.432 428.749 167.615C428.441 166.074 427.393 159.847 426.345 153.743C424.372 142.337 421.844 131.856 420.487 129.698C419.871 128.65 419.069 124.519 418.761 120.512C418.638 119.587 419.378 118.97 421.721 118.045C437.628 111.757 442.868 108.304 449.959 99.6107C458.775 88.8829 460.378 79.5731 457.481 56.5761C456.371 48.0062 454.583 42.4573 450.329 34.5039C445.951 26.3039 444.348 24.146 438.922 19.0904C433.373 13.9114 428.318 10.8287 417.713 6.14298C410.006 2.69034 410.006 2.69036 403.532 2.69036C395.456 2.69036 382.2 3.98508 377.391 5.21817C369.129 7.37606 358.216 14.528 354.763 20.0152L353.468 22.1114L349.091 19.6453C341.939 15.5761 337.931 13.8497 326.155 9.90387C311.913 5.09484 307.597 4.04674 294.095 2.13545C281.455 0.409137 267.151 -0.20739 256.793 0.532461ZM288.546 5.83471C304.638 7.74599 310.433 9.04074 325.847 14.4047C336.02 17.9189 345.638 22.4813 352.235 26.9821C356.49 29.8798 364.813 38.943 370.054 46.5265C372.15 49.5475 375.233 53.3701 376.959 54.9731C378.624 56.5761 381.337 60.1521 382.94 62.9882C384.543 65.7626 388.304 71.9897 391.325 76.8604C394.284 81.6694 398.107 88.328 399.771 91.6574C401.436 94.9867 403.224 98.0694 403.779 98.5009C405.752 100.166 407.787 104.666 409.39 111.202C411.178 118.477 414.322 127.663 416.357 131.671C418.021 134.877 420.303 144.063 422.276 155.593C423.139 160.648 424.31 167.06 424.803 169.773C427.146 182.166 429.058 202.08 428.873 212.315C428.626 228.16 424.063 251.588 420.796 253.931C420.118 254.424 418.083 255.966 416.295 257.384C414.507 258.74 409.76 261.823 405.69 264.227C380.843 278.716 373.321 281.737 359.141 282.909C347.241 283.895 339.781 284.82 334.479 285.93C331.581 286.608 325.23 287.594 320.298 288.149C315.366 288.704 309.015 289.382 306.117 289.752C301 290.369 290.827 291.047 272.515 292.157C261.726 292.773 222.328 292.342 219.184 291.54C218.012 291.232 214.806 290.677 212.093 290.307C207.038 289.567 192.61 286.115 188.11 284.512C186.692 284.018 182.252 282.724 178.183 281.676C174.114 280.566 168.38 278.901 165.482 277.915C162.523 276.928 159.008 276.127 157.714 276.127C156.357 276.127 153.521 275.387 151.302 274.524C149.144 273.661 144.643 272.551 141.313 272.058C138.046 271.626 133.73 270.824 131.757 270.331C129.784 269.776 127.133 269.221 125.776 269.036C124.42 268.852 122.077 268.42 120.536 268.112C118.994 267.742 115.912 267.249 113.692 266.94C109.191 266.324 95.5653 260.22 92.8525 257.63C92.051 256.829 90.5713 254.363 89.5848 252.143C88.5983 249.924 86.9953 246.409 86.0088 244.375C82.2478 236.298 81.6929 233.277 81.6929 220.391C81.6929 208.924 82.3712 199.737 83.5426 195.36C83.8509 194.188 84.5291 191.537 85.0223 189.503C85.5156 187.468 86.7487 182.906 87.7968 179.391C88.8449 175.815 90.5096 169.157 91.4961 164.533C92.5442 159.724 94.9488 151.893 96.9834 146.283C99.018 140.919 100.868 135.493 101.114 134.322C101.731 131.363 112.212 103.187 113.815 100.104C119.857 88.3897 122.879 83.0258 124.913 80.313C126.208 78.5867 128.119 75.2573 129.044 72.9145C132.003 65.9475 138.292 56.2679 145.814 47.3897C147.356 45.54 149.945 42.334 151.486 40.2994C155.679 34.8739 164.311 26.2422 166.777 25.0091C174.114 21.4332 186.938 16.5625 198.838 12.74C207.716 9.90389 228.925 7.12945 258.335 4.90989C266.535 4.2317 278.496 4.66328 288.546 5.83471ZM215.793 54.7265C213.758 54.9731 211.477 55.528 210.737 55.8979C209.997 56.3295 208.702 56.6378 207.839 56.6378C206.976 56.6378 206.236 56.8844 206.236 57.1927C206.236 58.0558 204.387 58.5491 203.215 57.9325C202.229 57.3776 198.714 57.6859 193.597 58.734C189.898 59.5355 189.589 59.7821 189.589 61.5084C189.589 63.6663 191.316 65.2694 193.535 65.2694C194.522 65.2694 196.186 65.7009 197.296 66.2558C198.899 66.9957 199.639 67.0573 200.687 66.5025C201.982 65.8243 205.62 66.1942 205.62 67.0573C205.62 67.3039 206.359 67.5506 207.346 67.5506C220.355 68.1054 238.112 72.2363 240.763 75.4423C241.626 76.4904 245.079 76.7371 245.079 75.7506C245.079 75.0107 246.929 74.9491 248.1 75.6889C248.778 76.1205 248.84 76.4904 248.285 77.107C247.607 77.9701 247.915 80.4363 248.901 81.731C249.271 82.1626 250.566 82.3476 252.108 82.2243C253.526 82.101 255.129 82.2859 255.56 82.5326C256.053 82.8408 256.732 82.8408 257.163 82.4709C257.656 82.0393 258.026 82.101 258.335 82.5326C259.013 83.6423 259.753 83.2107 260.184 81.2995C260.554 79.5115 260.123 78.3401 255.992 69.7701C255.375 68.3521 255.375 68.3521 254.512 69.5852C253.032 71.6814 251.861 71.1265 251.861 68.3521C251.861 66.6874 251.553 65.7009 250.936 65.516C250.196 65.2077 250.073 64.2213 250.258 60.6453C250.689 53.8633 250.628 53.8017 241.688 54.7882C235.276 55.4664 224.979 55.343 220.725 54.5415C220.047 54.4182 217.827 54.5415 215.793 54.7265ZM310.557 60.5836C310.187 61.3851 309.077 62.4333 308.029 62.8648C304.884 64.2829 305.994 65.331 311.728 66.5025C314.379 66.9957 315.366 67.5506 315.982 68.6604C316.414 69.5235 317.092 70.2017 317.4 70.2017C317.709 70.2017 318.942 71.0032 320.051 72.0513C322.394 74.0859 325.354 75.0107 329.855 75.134C334.047 75.2574 334.109 75.2574 333.246 74.2092C332.629 73.4694 332.629 73.2844 333.431 73.2844C334.972 73.2844 335.095 71.0649 333.616 69.7701C327.697 64.6528 322.888 62.1867 318.757 62.1867C316.29 62.1867 315.304 61.8784 314.009 60.6453C311.913 58.734 311.42 58.734 310.557 60.5836ZM257.903 84.1972C258.335 84.3821 258.89 84.3205 259.075 84.1355C259.321 83.9506 258.951 83.7656 258.273 83.8273C257.595 83.8273 257.41 84.0122 257.903 84.1972ZM206.976 89.9311C205.126 90.1777 201.797 90.9792 199.577 91.6574C197.296 92.3356 192.795 93.507 189.589 94.2469C184.164 95.5416 180.341 96.9596 180.341 97.6995C180.341 98.7476 185.088 99.4258 194.522 99.7957C203.277 100.104 205.681 100.351 207.469 101.275C210.305 102.817 216.718 104.173 222.02 104.296C227.384 104.42 228.617 103.557 228.37 99.6724C228.124 96.2814 229.418 95.8498 230.282 99.1175C231.022 102.015 232.316 102.57 235.769 101.645C240.023 100.536 240.948 96.5897 237.557 94.0619C234.782 92.0889 231.576 91.1641 224.733 90.5476C213.943 89.4995 210.244 89.3762 206.976 89.9311ZM300.753 102.57C299.027 103.988 298.842 104.358 299.459 105.653C300.507 107.934 302.171 107.996 304.699 105.776C306.549 104.111 307.474 103.803 310.865 103.618C313.084 103.433 315.427 103.618 316.167 103.988C316.907 104.296 318.263 104.851 319.25 105.283C321.778 106.269 321.285 107.194 318.078 107.194C312.406 107.194 308.83 112.373 312.838 114.778C315.181 116.134 323.689 117.306 325.23 116.442C327.512 115.209 328.375 113.853 328.005 112.127C327.82 111.14 327.882 110.215 328.19 110.03C329.053 109.475 331.273 111.387 331.519 112.928C331.643 114.038 332.136 114.346 334.047 114.469C335.897 114.654 336.328 114.469 336.328 113.606C336.328 112.065 332.629 106.578 331.643 106.578C331.149 106.578 329.3 105.776 327.512 104.79C323.381 102.508 319.435 101.707 310.187 101.275C302.85 100.967 302.726 100.967 300.753 102.57ZM203.153 111.448C203.647 111.757 204.263 111.88 204.51 111.695C204.818 111.572 205.435 111.757 205.928 112.127C207.099 113.113 219.184 113.175 220.787 112.25C221.773 111.695 221.403 111.572 218.814 111.51C217.087 111.51 212.648 111.325 208.949 111.14C204.325 110.893 202.537 111.017 203.153 111.448ZM317.339 125.074C317.77 125.752 318.695 126.307 319.373 126.369C324.922 126.677 327.82 126.615 328.067 126.184C328.252 125.937 327.45 125.69 326.34 125.69C325.23 125.69 322.764 125.259 320.915 124.766C316.537 123.594 316.414 123.594 317.339 125.074ZM235.399 144.002C234.351 144.372 234.413 145.42 235.461 145.42C235.954 145.42 236.447 144.988 236.694 144.495C237.064 143.57 236.755 143.447 235.399 144.002ZM232.255 146.776C231.823 147.208 231.515 147.331 231.515 147.084C231.515 146.345 227.569 148.564 226.706 149.797C226.274 150.475 225.473 150.969 224.979 150.969C224.486 150.969 223.808 151.647 223.561 152.448C223.253 153.25 222.266 154.668 221.342 155.654C219.862 157.257 219.8 157.442 220.848 157.812C222.205 158.306 223.068 157.997 226.089 156.086C227.384 155.284 228.802 154.668 229.295 154.668C230.528 154.668 231.206 153.435 231.022 151.524C230.898 150.537 231.391 149.427 232.44 148.379C233.303 147.454 233.796 146.591 233.488 146.406C233.179 146.221 232.625 146.406 232.255 146.776ZM310.002 153.743C310.002 154.236 310.433 154.668 310.926 154.668C311.666 154.668 311.666 154.483 311.05 153.743C310.618 153.25 310.248 152.818 310.125 152.818C310.063 152.818 310.002 153.25 310.002 153.743ZM312.283 157.751C312.283 158.552 313.393 159.107 313.763 158.429C313.948 158.121 313.701 157.751 313.208 157.504C312.714 157.319 312.283 157.442 312.283 157.751ZM232.748 160.772C232.748 161.45 233.056 162.19 233.364 162.375C233.734 162.56 233.981 163.176 233.981 163.731C233.981 164.224 234.721 165.581 235.707 166.691C236.632 167.8 237.804 169.403 238.358 170.205C239.468 171.746 249.025 177.233 251.738 177.85C252.662 178.035 255.499 179.206 258.026 180.439C260.554 181.611 263.884 182.844 265.363 183.152C266.843 183.399 269.618 184.324 271.467 185.187C275.721 187.098 277.756 187.098 280.592 185.187C281.825 184.324 283.49 183.645 284.291 183.645C285.833 183.645 287.004 182.042 287.004 180.069C287.004 179.391 287.436 178.528 287.929 178.097C288.422 177.665 288.854 176.802 288.854 176.185C288.854 175.26 288.361 175.014 286.449 175.014C284.908 175.014 283.922 174.706 283.675 174.089C283.49 173.596 283.058 173.164 282.688 173.164C282.319 173.164 281.085 172.486 279.976 171.623C278.866 170.76 277.633 170.082 277.263 170.082C276.893 170.082 276.523 169.835 276.4 169.588C275.845 168.17 269.988 165.026 266.781 164.348C264.87 163.978 258.211 163.669 252.108 163.608C242.674 163.608 240.701 163.423 239.777 162.621C238.235 161.265 234.906 159.6 233.673 159.6C233.179 159.6 232.748 160.155 232.748 160.772ZM314.317 162.93C314.502 166.136 314.749 166.752 316.66 168.355C317.832 169.403 318.757 170.513 318.757 170.883C318.757 171.808 321.963 173.534 322.579 172.979C322.826 172.733 322.518 171.746 321.963 170.821C321.346 169.897 320.236 167.739 319.373 166.074C318.572 164.348 317.03 162.128 315.982 161.142L314.133 159.354L314.317 162.93ZM295.204 172.363C292.738 173.103 291.937 173.596 291.937 174.459C291.937 175.137 291.875 175.815 291.875 176.062C291.813 176.37 292.492 176.925 293.416 177.357C294.834 178.035 295.513 178.035 298.226 177.11C301.678 176 305.501 173.904 305.501 173.226C305.501 171.191 300.568 170.76 295.204 172.363ZM243.846 197.271C241.996 197.579 239.098 198.689 237.495 199.676C235.831 200.724 234.289 201.525 234.043 201.525C232.994 201.525 231.022 204.546 229.973 207.691C228.617 211.883 227.322 214.534 226.151 215.521C225.658 215.891 225.103 217.309 224.918 218.603C224.671 220.7 224.918 221.193 227.261 223.597C229.418 225.817 230.22 226.187 232.07 226.125C233.303 226.063 234.967 226.31 235.831 226.68C237.249 227.235 237.742 227.05 239.777 225.2C242.489 222.796 242.551 222.796 245.572 224.091C247.175 224.83 249.888 225.139 254.45 225.262C258.088 225.324 261.417 225.632 261.849 226.002C262.281 226.372 264.439 226.803 266.658 226.988C268.878 227.173 274.55 227.79 279.236 228.345C287.498 229.331 287.991 229.516 291.443 231.797C295.019 234.264 295.019 234.264 297.116 233.277C298.226 232.722 299.705 231.797 300.383 231.119C301.062 230.503 302.788 229.393 304.144 228.715C305.562 227.975 306.981 226.865 307.35 226.187C308.399 224.214 307.474 215.151 306.056 213.363C305.439 212.5 304.884 211.39 304.884 210.835C304.884 210.28 304.329 209.355 303.651 208.739C302.973 208.184 302.418 207.136 302.418 206.396C302.418 204.053 301.247 202.635 299.582 203.005C298.719 203.251 297.301 203.005 296.253 202.45C295.266 201.957 293.848 201.525 293.046 201.525C291.135 201.525 283.12 199.799 279.359 198.627C277.694 198.073 273.933 197.579 271.036 197.456C268.138 197.394 261.602 197.148 256.485 196.963C251.429 196.778 245.695 196.901 243.846 197.271ZM266.35 207.444C268.569 208.122 270.666 208.245 273.933 207.999C280.346 207.382 282.873 207.999 286.264 210.897C287.867 212.253 290.21 214.226 291.443 215.274C292.738 216.384 293.786 217.432 293.786 217.617C293.786 218.11 283.12 219.035 276.523 219.097C266.966 219.22 261.664 218.48 258.89 216.63C256.67 215.089 256.177 214.966 252.354 215.336C248.223 215.706 248.223 215.706 246.065 213.424C244.277 211.513 244.031 210.958 244.586 209.848C245.634 207.937 246.065 207.814 251.614 208.06C255.19 208.245 257.348 208.06 258.766 207.444C261.417 206.273 262.651 206.273 266.35 207.444ZM233.796 243.265C233.179 243.45 232.748 244.005 232.871 244.56C233.118 245.731 235.461 246.039 237.249 245.115C238.358 244.621 238.358 244.56 237.249 243.758C236.077 242.833 235.646 242.772 233.796 243.265ZM240.516 246.841C240.331 247.334 239.715 247.766 239.222 247.766C238.667 247.766 238.42 247.458 238.667 247.088C238.913 246.594 238.605 246.533 237.619 246.841C235.707 247.458 235.337 247.889 236.324 248.197C236.817 248.382 237.002 249.122 236.694 250.54C236.139 253.561 237.742 256.089 241.688 258.309C243.537 259.357 245.079 260.405 245.079 260.713C245.079 260.96 246.805 261.946 248.84 262.871C251.614 264.104 253.896 264.597 257.04 264.721C259.444 264.844 263.637 265.214 266.35 265.584C273.009 266.509 274.118 266.447 275.598 264.967C276.77 263.796 276.77 263.734 275.66 264.166C274.673 264.536 274.55 264.412 274.858 263.241C275.29 261.453 274.18 258.247 273.07 258.247C272.577 258.247 272.207 258.494 272.207 258.864C272.207 259.172 271.96 259.48 271.591 259.48C271.282 259.48 270.974 259.049 270.974 258.494C270.974 258 270.727 257.692 270.419 257.939C270.111 258.124 269.433 257.692 268.939 257.014C267.953 255.658 264.562 254.301 259.691 253.376C257.595 253.006 254.882 251.835 252.477 250.294C247.422 247.026 241.133 245.238 240.516 246.841ZM276.523 262.255C276.523 263.426 277.078 263.426 278.619 262.255C279.791 261.391 279.791 261.33 278.188 261.33C277.139 261.33 276.523 261.638 276.523 262.255Z" fill="#020203"/>
</svg>
