<svg width="624" height="603" viewBox="0 0 624 603" fill="none" xmlns="http://www.w3.org/2000/svg">
<path d="M280.521 540.682C275.626 541.526 270.87 540.566 267.787 542.405C258.441 547.98 257.234 543.995 253.264 535.458C246.62 521.172 249.236 516.939 264.361 513.91C273.174 512.145 277.545 511.382 277.248 521.058C277.035 527.996 288.955 531.958 280.521 540.682Z" fill="black"/>
<path d="M391.708 510.332C382.868 515.76 375.912 518.76 376.56 504.561C376.725 500.953 374.443 499.053 372.585 496.629C368.156 490.851 369.884 486.757 376.822 485.881C381.558 485.283 385.68 483.885 389.868 481.77C395.618 478.867 398.777 481.9 399.478 487.489C399.918 490.995 399.336 494.387 401.741 497.685C411.116 510.541 402.695 510.943 391.708 510.332Z" fill="black"/>
<path d="M321.393 341.152C320.929 350.732 317.941 357.797 308.792 359.349C300.057 360.83 295.59 354.19 292.394 347.726C289.089 341.044 285.49 335.615 278.24 332.405C273.303 330.218 268.339 326.413 270.777 319.546C276.081 314.891 280.726 321.993 286.453 319.437C290.349 315.263 286.16 301.281 300.833 308.152C299.835 302.423 298.668 298.47 298.581 294.494C298.484 290.009 300.734 285.919 305.612 285.906C311.472 285.891 311.704 290.535 310.566 294.847C308.529 302.562 311.904 308.465 314.463 313.66C322.43 315.594 322.087 307.094 327.792 307.137C335.211 310.693 332.169 316.465 329.111 320.89C325.016 326.816 319.425 331.778 321.393 341.152ZM299.849 334.037C298.848 340.174 300.719 344.483 307.108 346.575C311.445 331.383 311.435 331.361 299.849 334.037Z" fill="black"/>
<path d="M223.899 288.776C214.947 292.422 213.315 288.915 215.892 282.072C218.125 276.147 222.389 271.6 227.46 267.831C230.332 265.697 235.503 263.699 235.67 261.356C236.837 245.053 248.383 249.659 257.177 250.606C279.526 253.012 279.49 253.348 278.633 277.416C265.359 281.716 253.293 293.887 237.487 281.32C233.224 277.93 229.062 285.63 223.899 288.776Z" fill="black"/>
<path d="M310.412 274.568C297.386 279.473 301.503 267.758 298.481 263.411C294.749 258.044 296.034 252.565 302.01 248.94C308.608 244.938 315.125 240.77 321.939 237.169C326.055 234.995 332.504 232.966 333.784 238.779C335.772 247.814 342.228 245.98 347.807 247.268C355.476 249.038 362.68 251.565 365.817 261.096C353.362 268.246 342.691 279.862 326.482 266.191C321.318 261.836 316.081 270.525 310.412 274.568Z" fill="black"/>
<path d="M212.287 311.824C215.783 305.67 219.739 301.803 225.42 300.059C238.025 296.19 251.077 303.612 253.991 316.246C256.645 327.754 249.136 338.727 236.981 341.103C223.504 343.737 212.331 335.709 210.9 322.062C210.588 319.095 211.438 316.007 212.287 311.824Z" fill="#FF416B"/>
<path d="M371.008 301.161C375.835 304.892 378.073 308.455 374.037 313.344C370.537 317.584 366.102 319.74 360.481 319.196C350.063 318.189 340.255 305.274 341.753 294.481C343.183 284.181 357.321 275.22 367.796 278.423C384.717 283.596 374.055 292.56 371.008 301.161Z" fill="#FF416B"/>
<path fill-rule="evenodd" clip-rule="evenodd" d="M550.505 433.866C537.811 441.809 526.794 450.903 519.048 464.449C504.432 490.01 484.13 510.612 457.915 524.682C450.32 528.758 447.976 533.524 449.842 542.193C452.988 556.814 455.064 571.702 456.799 586.569C456.905 587.479 457.086 588.467 457.274 589.49C458.22 594.642 459.331 600.687 451.815 602.032C443.712 603.483 443.3 597.384 442.943 592.081C442.876 591.089 442.811 590.124 442.697 589.242C438.352 555.392 433.321 521.681 422.532 489.161C420.482 482.981 417.89 476.981 415.298 470.981C413.997 467.969 412.695 464.958 411.462 461.923C409.592 457.319 408.66 452.468 414.042 449.796C419.516 447.078 422.921 450.943 425.164 455.233C432.879 469.989 437.395 485.97 441.48 501.953C444.416 513.442 448.946 515.001 458.726 508.665C479.682 495.089 495.87 477.223 507.285 455.34C507.668 454.605 508.047 453.871 508.425 453.138C512.778 444.7 517.039 436.442 526.501 430.513C529.209 429.16 535.579 423.739 539.397 412.879C538.503 395.904 531.108 389.807 518.768 397.171C511.388 401.936 508.236 409.393 507.583 412.527C500.183 421.124 490.518 426.681 480.966 432.174C467.079 440.158 453.429 448.007 447.314 464.862C438.905 458.707 440.299 453.795 441.648 449.037L441.653 449.021C441.705 448.839 441.756 448.658 441.807 448.477C447.188 429.289 435.271 401.289 417.989 391.61C410.461 387.394 404.55 388.07 398.854 394.71C356.764 443.771 264.7 451.774 211.944 414.813C202.544 408.228 196.497 409.585 190.192 418.696C177.199 437.473 171.566 457.334 176.713 480.233C177.017 481.586 177.511 483.115 178.029 484.718C180.058 490.999 182.453 498.415 175.23 500.826C167.853 503.288 165.813 496.747 163.919 490.671C163.301 488.692 162.699 486.762 161.933 485.209C160.039 481.369 158.306 477.439 156.563 473.489C151.044 460.978 145.436 448.266 134.366 437.586C132.058 432.706 127.222 422.336 126.344 419.894C126.197 418.938 125.834 417.914 125.247 416.841C122.935 412.616 118.483 411.406 114.516 412.906C103.035 417.246 94.6692 424.149 98.6036 440.153C99.371 441.097 100.082 441.787 100.745 442.269C104.863 446.365 111.761 456.064 114.695 460.401C123.318 470.709 127.365 482.83 131.388 494.882C134.588 504.467 137.773 514.009 143.234 522.56C144.84 525.074 146.387 527.631 147.932 530.185C153.35 539.144 158.757 548.083 166.691 555.129C180.746 567.609 194.192 565.295 204.161 549.451C211.257 538.172 212.96 525.564 214.664 512.957C215.167 509.232 215.67 505.506 216.313 501.816C216.455 500.997 216.547 500.126 216.639 499.25C217.053 495.304 217.48 491.239 222.635 491.227C229.699 491.209 229.947 497.604 229.851 502.747C229.512 520.966 227.684 539.47 219.333 555.533C212.379 568.908 211.511 580.461 218.186 593.381C218.911 594.784 219.006 596.511 219.106 598.304C219.153 599.153 219.2 600.017 219.316 600.868C208.085 605.899 201.712 601.726 199.021 591.5C196.45 581.729 191.664 577.237 180.692 576.983C163.709 576.589 152.721 564.829 143.096 552.304C129.686 534.853 119.086 515.271 115.344 493.937C111.551 472.312 96.9965 458.32 81.5376 450.191C74.5645 442.022 78.0527 431.184 80.6684 426.786C82.0111 424.955 83.2879 423.098 84.5585 421.25C90.349 412.828 96.0094 404.595 107.18 399.857C108.303 399.107 109.631 398.641 110.972 398.171C112.258 397.72 113.555 397.265 114.695 396.552C120.548 396.489 134.105 399.01 141.503 409.599C143.478 425.042 145.743 427.969 160.122 446.053C166.381 428.916 172.801 412.823 185.843 400.704C189.735 397.088 187.144 393.002 184.605 389.59C157.881 353.682 148.626 311.967 146.271 268.639C143.228 212.638 146.925 157.191 164.208 103.139C197.003 0.572746 292.908 -17.4664 361.071 14.0884C397.084 30.7604 415.995 61.3812 427.174 97.8326C427.206 97.9378 427.239 98.0451 427.273 98.1542C427.857 100.047 428.613 102.493 427.841 103.827C423.067 112.075 415.019 113.875 407 115.669C403.525 116.446 400.056 117.222 396.861 118.521C390.11 121.265 383.702 117.715 380.443 110.535C379.376 108.187 378.462 105.754 377.677 103.297C367.786 72.3616 349.613 50.0171 315.193 46.668C276.579 42.9107 243.268 52.2923 221.533 87.8452C205.181 114.594 198.843 144.139 196.021 174.754C195.99 175.088 195.954 175.428 195.917 175.77C195.583 178.903 195.218 182.332 198.636 184.859C203.358 184.826 206.335 181.861 209.284 178.925C210.297 177.917 211.306 176.912 212.382 176.03C271.027 127.961 370.252 140.72 410.441 203.648C441.457 252.212 443.23 304.793 422.07 358.184C421.17 360.456 420.176 362.691 419.183 364.926C418.29 366.935 417.397 368.943 416.572 370.979C416.354 371.514 416.385 372.149 416.441 373.313C416.476 374.043 416.52 374.981 416.52 376.232C439.467 382.189 447.969 402.184 456.317 421.818C456.784 422.916 457.251 424.014 457.72 425.108C478.228 419.32 491.827 410.091 497.107 391.177C503.578 382.323 514.335 377.621 518.905 376.377C539.375 376.372 550.995 389.233 558.456 407.06C559.878 413.141 560.28 427.016 550.505 433.866ZM351.861 377.381C366.636 365.767 376.134 350.61 380.615 332.571C387.995 302.86 387.783 273.138 377.328 244.16C371.999 229.387 363.301 216.321 349.44 207.983C310.736 184.702 271.459 189.465 234.574 210.472C200.356 229.961 192.339 263.654 196.89 300.422C201.45 337.259 213.519 370.847 251.677 385.629C284.949 398.519 318.436 397.689 351.861 377.381Z" fill="black"/>
<path d="M540.878 427.21C532.067 425.551 524.538 421.996 518.291 416.544C512.105 411.105 507.67 404.336 504.984 396.238C502.31 388.078 501.883 379.161 503.705 369.487L510.981 330.853C512.953 320.378 516.687 311.734 522.181 304.921C527.686 298.047 534.519 293.272 542.679 290.598C550.85 287.862 559.927 287.434 569.909 289.314C576.379 290.532 582.361 292.647 587.854 295.66C593.348 298.672 598.1 302.917 602.109 308.393L580.802 322.947C579.001 320.311 576.769 318.104 574.105 316.327C571.441 314.549 568.569 313.37 565.488 312.79C560.682 311.885 556.277 312.235 552.274 313.842C548.344 315.399 545.051 317.81 542.395 321.074C539.812 324.288 538.137 327.928 537.371 331.995L533.646 351.774L530.265 346.352C534.816 343.19 539.779 341.062 545.153 339.968C550.6 338.825 556.004 338.758 561.365 339.767C569.744 341.345 576.754 344.611 582.393 349.565C588.093 354.53 592.115 360.615 594.459 367.82C596.864 375.036 597.278 382.834 595.7 391.214C594.122 399.594 590.569 406.772 585.041 412.749C579.524 418.665 572.877 422.964 565.098 425.646C557.331 428.267 549.258 428.788 540.878 427.21ZM545.403 403.179C549.223 403.899 552.879 403.63 556.369 402.374C559.922 401.128 562.918 399.109 565.358 396.314C567.86 393.532 569.471 390.23 570.19 386.41C570.91 382.59 570.641 378.934 569.384 375.444C568.139 371.891 566.119 368.895 563.325 366.455C560.542 363.953 557.241 362.342 553.421 361.623C549.6 360.903 545.908 361.197 542.345 362.504C538.854 363.76 535.852 365.811 533.338 368.655C530.898 371.45 529.318 374.757 528.599 378.577C527.903 382.274 528.183 385.868 529.44 389.359C530.696 392.849 532.716 395.846 535.499 398.347C538.281 400.849 541.583 402.46 545.403 403.179Z" fill="black"/>
<path d="M122.806 443.396C116.079 449.323 108.646 453.074 100.506 454.648C92.4125 456.18 84.3471 455.515 76.3095 452.653C68.2304 449.744 60.9368 444.596 54.4288 437.21L28.4382 407.715C21.3913 399.717 16.8709 391.458 14.8771 382.936C12.8418 374.367 13.2788 366.042 16.188 357.963C19.0558 349.837 24.3002 342.416 31.9211 335.701C36.8606 331.349 42.2073 327.933 47.9614 325.453C53.7155 322.973 59.9844 321.837 66.7683 322.043L65.1415 347.795C61.9557 347.594 58.8428 347.997 55.8027 349.004C52.7627 350.012 50.0666 351.552 47.7144 353.624C44.0451 356.858 41.6131 360.547 40.4184 364.692C39.2292 368.748 39.1048 372.827 40.0451 376.929C40.9911 380.943 42.8319 384.502 45.5678 387.606L58.874 402.707L52.5191 402.039C52.8243 396.505 54.1981 391.284 56.6406 386.374C59.0887 381.375 62.3592 377.073 66.4519 373.466C72.8496 367.829 79.7355 364.31 87.1095 362.91C94.5305 361.468 101.802 362.039 108.925 364.621C116.094 367.162 122.498 371.631 128.135 378.029C133.773 384.427 137.248 391.643 138.562 399.678C139.835 407.666 139.136 415.552 136.468 423.335C133.758 431.071 129.204 437.758 122.806 443.396ZM106.64 425.049C109.557 422.479 111.593 419.431 112.748 415.906C113.951 412.339 114.201 408.734 113.498 405.092C112.842 401.407 111.23 398.107 108.66 395.19C106.089 392.274 103.042 390.238 99.5164 389.082C95.9496 387.879 92.3449 387.629 88.7021 388.332C85.0179 388.988 81.7175 390.601 78.8009 393.171C75.8842 395.741 73.8453 398.833 72.6841 402.447C71.5285 405.972 71.2993 409.6 71.9965 413.332C72.6993 416.974 74.3357 420.254 76.9058 423.171C79.3929 425.993 82.3992 427.982 85.9245 429.138C89.4499 430.294 93.0546 430.543 96.7388 429.888C100.423 429.232 103.723 427.619 106.64 425.049Z" fill="black"/>
</svg>
